<svg width="70" height="54" viewBox="0 0 70 54" fill="none" xmlns="http://www.w3.org/2000/svg"><path d="M12.563 0H57.437C61.8054 0 63.3895 0.454845 64.9865 1.30895C66.5836 2.16305 67.8369 3.41642 68.691 5.01346C69.5452 6.61049 70 8.1946 70 12.563V41.437C70 45.8054 69.5452 47.3895 68.691 48.9865C67.8369 50.5836 66.5836 51.8369 64.9865 52.691C63.3895 53.5452 61.8054 54 57.437 54H12.563C8.1946 54 6.61049 53.5452 5.01346 52.691C3.41642 51.8369 2.16305 50.5836 1.30895 48.9865C0.454845 47.3895 0 45.8054 0 41.437V12.563C0 8.1946 0.454845 6.61049 1.30895 5.01346C2.16305 3.41642 3.41642 2.16305 5.01346 1.30895C6.61049 0.454845 8.1946 0 12.563 0Z" fill="#7AC70C"/><path fill-rule="evenodd" clip-rule="evenodd" d="M19.4001 28.0553C19.4001 19.3872 26.6617 12.4553 35.5001 12.4553C44.3385 12.4553 51.6001 19.3872 51.6001 28.0553C51.6001 36.7234 44.3385 43.6553 35.5001 43.6553C26.6617 43.6553 19.4001 36.7234 19.4001 28.0553ZM35.5001 15.6553C28.3222 15.6553 22.6001 21.2594 22.6001 28.0553C22.6001 34.8512 28.3222 40.4553 35.5001 40.4553C42.6779 40.4553 48.4001 34.8512 48.4001 28.0553C48.4001 21.2594 42.6779 15.6553 35.5001 15.6553Z" fill="white"/><path fill-rule="evenodd" clip-rule="evenodd" d="M41.6429 8.8652C43.3742 9.22027 44.4898 10.9116 44.1347 12.6429C43.9232 13.6741 43.5353 14.6688 42.8693 15.5255C42.1843 16.4068 41.333 16.977 40.4561 17.3245C39.0606 17.8776 37.4785 17.8687 36.5673 17.8636C36.4865 17.8631 36.411 17.8627 36.3414 17.8627C34.5741 17.8627 33.1414 16.43 33.1414 14.6627C33.1414 12.8954 34.5741 11.4627 36.3414 11.4627C36.3662 11.4627 36.3906 11.4627 36.4146 11.4627C36.965 11.4627 37.3346 11.4628 37.6667 11.4376C37.7385 11.4322 37.7998 11.426 37.8516 11.4198C37.8561 11.4003 37.8607 11.3794 37.8652 11.357C38.2203 9.62577 39.9116 8.51013 41.6429 8.8652Z" fill="#7AC70C"/><path fill-rule="evenodd" clip-rule="evenodd" d="M37.0326 43.4274L28.0312 45.898C26.9661 46.1903 25.8656 45.5638 25.5732 44.4986C25.4627 44.0958 25.481 43.6685 25.6257 43.2767L26.5031 40.8999C26.8091 40.0709 27.7292 39.6469 28.5582 39.953C28.5759 39.9595 28.5936 39.9664 28.6112 39.9736L37.0326 43.4274Z" fill="white"/><path fill-rule="evenodd" clip-rule="evenodd" d="M33.9674 43.4274L42.9688 45.898C44.034 46.1903 45.1345 45.5638 45.4268 44.4986C45.5374 44.0958 45.519 43.6685 45.3744 43.2767L44.497 40.8999C44.191 40.0709 43.2709 39.6469 42.4419 39.953C42.4241 39.9595 42.4064 39.9664 42.3889 39.9736L33.9674 43.4274Z" fill="white"/><path fill-rule="evenodd" clip-rule="evenodd" d="M39.7157 12.9875L38.7967 13.9456C37.793 14.9921 36.5339 15.5586 35.0305 15.6627C33.5264 15.7669 32.2241 15.9054 31.1206 16.0779L30.2441 16.2149L31.0657 14.2119L35.2418 13.3726L39.7157 12.9875ZM35.3837 14.364L33.1172 14.8196C33.697 14.7615 34.3118 14.7101 34.9614 14.6651C35.5919 14.6215 36.1609 14.4844 36.6744 14.253L35.3837 14.364Z" fill="white"/><path d="M35.4999 37C40.7466 37 44.9999 32.7467 44.9999 27.5C44.9999 22.2533 40.7466 18 35.4999 18C30.2532 18 25.9999 22.2533 25.9999 27.5C25.9999 32.7467 30.2532 37 35.4999 37Z" fill="white"/><path d="M35.4999 31C39.6421 31 42.9999 27.6421 42.9999 23.5C42.9999 19.3579 39.6421 16 35.4999 16C31.3578 16 27.9999 19.3579 27.9999 23.5C27.9999 27.6421 31.3578 31 35.4999 31Z" fill="#7AC70C"/><path d="M34.7929 14.8758C34.8151 15.046 34.9488 15.1801 35.1189 15.2028C36.7186 15.4162 38.3821 14.9387 39.6159 13.7472C40.8958 12.5111 41.4239 10.7865 41.207 9.12411C41.1848 8.95393 41.0511 8.81986 40.881 8.79716C39.2813 8.58374 37.6178 9.06125 36.384 10.2527C35.1041 11.4888 34.576 13.2135 34.7929 14.8758Z" fill="white"/><path d="M36.2072 14.8758C36.185 15.046 36.0514 15.1801 35.8812 15.2028C34.2816 15.4162 32.6181 14.9387 31.3843 13.7472C30.1043 12.5111 29.5762 10.7865 29.7931 9.12411C29.8153 8.95393 29.949 8.81986 30.1191 8.79716C31.7188 8.58374 33.3823 9.06125 34.6161 10.2527C35.8961 11.4888 36.4241 13.2135 36.2072 14.8758Z" fill="white"/></svg>