<svg width="70" height="54" viewBox="0 0 70 54" fill="none" xmlns="http://www.w3.org/2000/svg"><path d="M12.563 0H57.437C61.8054 0 63.3895 0.454846 64.9865 1.30895C66.5836 2.16305 67.8369 3.41642 68.691 5.01346C69.5452 6.61049 70 8.1946 70 12.563V41.437C70 45.8054 69.5452 47.3895 68.691 48.9865C67.8369 50.5836 66.5836 51.8369 64.9865 52.6911C63.3895 53.5452 61.8054 54 57.437 54H12.563C8.1946 54 6.61049 53.5452 5.01346 52.6911C3.41642 51.8369 2.16305 50.5836 1.30895 48.9865C0.454846 47.3895 0 45.8054 0 41.437V12.563C0 8.1946 0.454846 6.61049 1.30895 5.01346C2.16305 3.41642 3.41642 2.16305 5.01346 1.30895C6.61049 0.454846 8.1946 0 12.563 0Z" fill="#EEEEEE"/><path d="M23.625 0V54H12.563C8.1946 54 6.61049 53.5452 5.01346 52.6911C3.41642 51.8369 2.16305 50.5836 1.30895 48.9865C0.454846 47.3895 0 45.8054 0 41.437V12.563C0 8.1946 0.454846 6.61049 1.30895 5.01346C2.16305 3.41642 3.41642 2.16305 5.01346 1.30895C6.61049 0.454846 8.1946 0 12.563 0H23.625Z" fill="#1CB0F6"/><path d="M46.375 0H57.437C61.8054 0 63.3895 0.454846 64.9865 1.30895C66.5836 2.16305 67.8369 3.41642 68.691 5.01346C69.5452 6.61049 70 8.1946 70 12.563V41.437C70 45.8054 69.5452 47.3895 68.691 48.9865C67.8369 50.5836 66.5836 51.8369 64.9865 52.6911C63.3895 53.5452 61.8054 54 57.437 54H46.375V0Z" fill="#FF4B4B"/></svg>